<svg xmlns="http://www.w3.org/2000/svg" aria-hidden="true" style="position:absolute;width:0;height:0;overflow:hidden"><defs><symbol id="icon-email-black-18dp-1-1" viewBox="0 0 2 2"><path d="M1.667.333H.334A.166.166 0 0 0 .168.5l-.001 1c0 .092.075.167.167.167h1.333a.167.167 0 0 0 .167-.167v-1a.167.167 0 0 0-.167-.167zm-.034.355-.589.368c-.013.008-.028.013-.044.013s-.032-.005-.045-.013L.366.688A.071.071 0 0 1 .331.627c0-.039.032-.071.071-.071.015 0 .028.004.039.012l.558.349.558-.349a.072.072 0 0 1 .039-.012.071.071 0 0 1 .037.132z"/></symbol><symbol id="icon-icon-send-1" viewBox="0 0 2 2"><path fill="#fff" d="M2 0 0 1.125l.639.237.986-.924-.75 1.012h.001-.001v.551l.358-.418.454.168.312-1.75z" style="fill:var(--color1, #fff)"/></symbol><symbol id="icon-person-black-18dp-1-1" viewBox="0 0 2 2"><path d="M1 1a.333.333 0 1 0 0-.666A.333.333 0 1 0 1 1zm0 .167c-.223 0-.667.112-.667.333v.083c0 .046.037.083.083.083h1.167a.083.083 0 0 0 .083-.083V1.5c0-.222-.444-.333-.667-.333z"/></symbol><symbol id="icon-phone-black-18dp-1-1" viewBox="0 0 2 2"><path d="m1.555 1.236-.204-.023-.019-.001a.16.16 0 0 0-.113.047l-.148.148A1.221 1.221 0 0 1 .544.884L.541.877.69.728A.16.16 0 0 0 .737.615L.736.595v.001L.713.393a.162.162 0 0 0-.16-.142H.414a.16.16 0 0 0-.161.166 1.367 1.367 0 0 0 1.278 1.278.159.159 0 0 0 .166-.161v-.14a.16.16 0 0 0-.141-.158h-.001z"/></symbol></defs></svg>